<?xml version="1.0" encoding="UTF-8"?>
<svg id="Capa_1" data-name="Capa 1" xmlns="http://www.w3.org/2000/svg" viewBox="0 0 512 512">
  <defs>
    <style>
      .cls-1 {
        fill: #febd1b;
      }
    </style>
  </defs>
  <path class="cls-1" d="M256,74.32c-31.48,10.58-63.49,19.48-95.92,26.64-19.12,4.24-38.64,7.84-58.16,10.88v114.08c0,84.4,49.52,161.84,126.16,197.2l28,12.88,28-12.88c76.64-35.36,126.16-112.8,126.16-197.2v-114.08c-19.52-3.04-39.12-6.64-58.24-10.88-32.43-7.16-64.44-16.06-95.92-26.64h-.08ZM256,346.72c-39.52,0-71.6-32.08-71.6-71.6,0-57.28,71.6-143.12,71.6-143.12,0,0,71.6,85.92,71.6,143.12,0,39.52-32.08,71.6-71.6,71.6Z"/>
  <path class="cls-1" d="M360.56,61.84c-38.88-8.56-73.92-19.04-104.56-29.84-30.64,10.8-65.6,21.28-104.56,29.84-32.08,7.04-62.08,11.76-89.6,14.96v149.04c0,100.32,58.35,191.49,149.44,233.52l44.72,20.64,44.72-20.64c91.11-42.02,149.45-133.19,149.44-233.52V76.8c-27.52-3.12-57.52-7.92-89.6-14.96ZM426.16,225.84c0,90.64-53.2,173.76-135.44,211.68l-31.36,14.48c-2.14.96-4.58.96-6.72,0l-31.28-14.48c-82.32-38-135.44-121.04-135.44-211.68v-120.96c0-4,2.88-7.36,6.88-7.92,54.64-7.97,108.44-20.93,160.72-38.72,1.68-.56,3.44-.56,5.12,0,31.68,10.72,64.24,19.84,96.8,27.04,20.96,4.64,42.48,8.56,63.92,11.68,3.92.56,6.88,3.92,6.88,7.92v120.96h-.08Z"/>
  <rect class="cls-1" x="151" y="121" width="194" height="231"/>
</svg>